<svg xmlns="http://www.w3.org/2000/svg" version="1.1" x="0px" y="0px" width="374.173px" height="51.023px" viewBox="-3.4 -1.677 374.173 51.023" enable-background="new -3.4 -1.677 374.173 51.023" xml:space="preserve"><path fill="#FFFFFF" d="M90.829 46.479c-6.946 0-10.419-3.474-10.419-10.42V11.947c0-6.945 3.473-10.419 10.419-10.419h9.229c6.945 0 10.419 3.474 10.419 10.419v0.274l-5.656 2.68h-0.297v-2.954c0-3.373-1.489-5.062-4.465-5.062H90.83c-2.977 0-4.465 1.688-4.465 5.062V36.06c0 3.375 1.488 5.062 4.465 5.062h9.229c2.977 0 4.465-1.687 4.465-5.062v-9.348h-10.36v-0.298l2.411-5.12h13.902V36.06c0 6.946-3.474 10.42-10.419 10.42H90.829z"/><path fill="#FFFFFF" d="M126.777 46.479c-5.954 0-8.931-2.978-8.931-8.932V22.664c0-5.953 2.977-8.931 8.931-8.931h6.847c5.954 0 8.932 2.978 8.932 8.931v1.578L123.89 38.675c0.277 1.631 1.239 2.446 2.888 2.446h6.847c1.985 0 2.979-1.19 2.979-3.572v-1.577l5.655-2.68h0.298v4.257c0 5.954-2.978 8.931-8.932 8.931H126.777L126.777 46.479zM123.8 32.458l12.772-9.873c-0.119-2.329-1.102-3.493-2.948-3.493h-6.847c-1.985 0-2.978 1.191-2.978 3.572V32.458z"/><path fill="#FFFFFF" d="M165.608 41.553"/><path fill="#FFFFFF" d="M182.342 46.479c-6.945 0-10.419-3.474-10.419-10.42V11.947c0-6.945 3.474-10.419 10.419-10.419h9.229c6.945 0 10.418 3.474 10.418 10.419v0.274l-5.656 2.68h-0.297v-2.954c0-3.373-1.488-5.062-4.465-5.062h-9.229c-2.977 0-4.466 1.688-4.466 5.062V36.06c0 3.375 1.489 5.062 4.466 5.062h9.229c2.977 0 4.465-1.687 4.465-5.062v-3.273l5.656-2.68h0.297v5.953c0 6.946-3.473 10.42-10.418 10.42H182.342z"/><path fill="#FFFFFF" d="M209.36 47.67V3.017l5.656-2.679h0.297v44.653l-5.655 2.679H209.36z"/><path fill="#FFFFFF" d="M231.615 46.479c-5.954 0-8.931-2.978-8.931-8.932V22.664c0-5.953 2.977-8.931 8.931-8.931h6.847c5.953 0 8.932 2.978 8.932 8.931v14.885c0 5.954-2.979 8.931-8.932 8.931H231.615L231.615 46.479zM231.615 41.121h6.847c1.984 0 2.978-1.19 2.978-3.572V22.664c0-2.381-0.992-3.572-2.978-3.572h-6.847c-1.985 0-2.978 1.191-2.978 3.572v14.885C228.638 39.931 229.63 41.121 231.615 41.121z"/><path fill="#FFFFFF" d="M263.694 46.479c-5.954 0-8.931-2.978-8.931-8.932V15.222l5.654-2.679h0.298v25.006c0 2.382 0.992 3.572 2.979 3.572h6.847c1.984 0 2.978-1.19 2.978-3.572V15.222l5.655-2.679h0.299v25.006c0 5.954-2.979 8.931-8.932 8.931H263.694L263.694 46.479z"/><path fill="#FFFFFF" d="M295.773 46.491c-5.954 0-8.932-2.977-8.932-8.932V22.676c0-5.953 2.978-8.931 8.932-8.931h6.847c1.351 0 2.341 0.309 2.978 0.923V3.028l5.656-2.679h0.298v37.21c0 5.955-2.979 8.932-8.932 8.932H295.773L295.773 46.491zM295.773 41.133h6.847c1.984 0 2.978-1.19 2.978-3.571V22.676c0-2.381-0.992-3.572-2.978-3.572h-6.847c-1.985 0-2.979 1.191-2.979 3.572v14.886C292.796 39.942 293.788 41.133 295.773 41.133z"/><path fill="#FFFFFF" d="M327.853 46.479c-5.954 0-8.931-2.978-8.931-8.932V22.664c0-5.953 2.977-8.931 8.931-8.931h6.847c5.953 0 8.932 2.978 8.932 8.931v1.578l-18.665 14.433c0.276 1.631 1.238 2.446 2.888 2.446h6.847c1.984 0 2.978-1.19 2.978-3.572v-1.577l5.656-2.68h0.298v4.257c0 5.954-2.979 8.931-8.932 8.931H327.853L327.853 46.479zM324.876 32.458l12.771-9.873c-0.119-2.329-1.102-3.493-2.947-3.493h-6.847c-1.985 0-2.979 1.191-2.979 3.572v9.794H324.876z"/><path fill="#FFFFFF" d="M351.002 47.67V22.664c0-5.953 2.977-8.931 8.931-8.931h7.44v0.298l-2.381 5.061h-5.061c-1.985 0-2.979 1.191-2.979 3.572v22.327l-5.655 2.679H351.002z"/><path fill="#FFFFFF" d="M42.145 38.521h11.417V8.881H42.18l-5.207-8.877H63.28v47.394H36.96"/><path fill="#FFFFFF" d="M37.182 8.878H9.717v29.643h15.828l5.681-10.383H21.083V19.26h26.604l-15.4 28.138H0V0h32.288L37.182 8.878z"/><path fill="#FFFFFF" d="M166.971 14.031v-0.298h-7.617l-0.029-11.4 -0.005 0.028V0.338h-0.297l-5.656 2.679v10.74h-5.218l-2.411 5.12v0.298h7.629v18.227l-0.002 0.013c0 0.021 0.002 0.04 0.002 0.062v0.33l0.011 0.014c0.137 5.766 3.156 8.664 9.058 8.664h2.939l0.09-0.31 1.37-4.55v-0.46l-4.399-0.13c-2.011 0-3.021-1.2-3.021-3.62l-0.047-18.262h5.192L166.971 14.031z"/></svg>