<?xml version="1.0" encoding="utf-8"?>
<!-- Generator: Adobe Illustrator 16.0.3, SVG Export Plug-In . SVG Version: 6.00 Build 0)  -->
<!DOCTYPE svg PUBLIC "-//W3C//DTD SVG 1.1//EN" "http://www.w3.org/Graphics/SVG/1.1/DTD/svg11.dtd">
<svg version="1.1" id="Layer_1" xmlns="http://www.w3.org/2000/svg" xmlns:xlink="http://www.w3.org/1999/xlink" x="0px" y="0px"
	 width="97.563px" height="18px" viewBox="-40 0 97.563 18" enable-background="new -40 0 97.563 18" xml:space="preserve">
<g>
	<path fill="#FFFFFF" d="M-11.624,12.784c0,2.229-1.808,4.038-4.056,4.038c-0.632,0-1.229-0.157-1.792-0.403
		c-0.175-0.122-0.28-0.369-0.175-0.562c0.104-0.229,0.351-0.316,0.562-0.193c0.439,0.211,0.877,0.316,1.405,0.316
		c1.791,0,3.213-1.424,3.213-3.196v-1.053c-0.72,1.035-1.896,1.686-3.213,1.686c-2.249,0-4.04-1.915-4.04-4.286
		c0-2.317,1.791-4.267,4.04-4.267c1.316,0,2.493,0.667,3.213,1.685V5.286c0-0.228,0.193-0.421,0.439-0.421
		c0.211,0,0.404,0.193,0.404,0.421V12.784z M-12.466,9.131c0-1.914-1.439-3.424-3.213-3.424c-1.757,0-3.196,1.511-3.196,3.424
		c0,1.933,1.439,3.458,3.196,3.458C-13.906,12.59-12.466,11.064-12.466,9.131z"/>
	<path fill="#FFFFFF" d="M-10.27,9.184c0-2.387,1.861-4.319,4.179-4.319c2.213,0,3.969,1.755,4.144,4.003v0.018v0.052
		c0,0.228-0.193,0.386-0.42,0.386h-7.06c0.087,1.879,1.563,3.301,3.336,3.301c1.142,0,2.196-0.596,2.774-1.561
		c0.123-0.212,0.386-0.247,0.563-0.143c0.193,0.143,0.262,0.387,0.14,0.597c-0.738,1.177-2.019,1.95-3.477,1.95
		C-8.409,13.469-10.27,11.537-10.27,9.184z M-9.374,8.499h6.514c-0.28-1.615-1.65-2.792-3.231-2.792
		C-7.705,5.707-9.058,6.866-9.374,8.499z"/>
	<path fill="#FFFFFF" d="M1.937,5.286c0,0.211-0.21,0.421-0.421,0.421H0.409v6.27c0,0.422,0.421,0.633,0.632,0.633
		c0.21,0,0.439,0.227,0.439,0.438c0,0.21-0.229,0.421-0.439,0.421c-0.861,0-1.511-0.633-1.511-1.492v-6.27H-1.54
		c-0.421,0-0.421-0.21-0.421-0.421c0-0.21,0-0.421,0.421-0.421h1.071V1.669c0-0.211,0.211-0.421,0.421-0.421
		c0.229,0,0.457,0.21,0.457,0.421v3.196h1.106C1.726,4.865,1.937,5.075,1.937,5.286z"/>
	<path fill="#FFFFFF" d="M2.359,9.097c0-2.441,2.037-4.391,4.459-4.408c1.054,0,2.038,0.386,2.793,0.966
		c0.402,0.316,0.473,0.913,0.193,1.299C9.453,7.375,8.891,7.445,8.487,7.13C8.03,6.796,7.469,6.567,6.818,6.567
		c-1.421,0-2.599,1.177-2.599,2.53c0,1.352,1.177,2.51,2.599,2.51c0.633,0,1.212-0.229,1.669-0.563
		c0.385-0.297,0.966-0.228,1.317,0.193c0.279,0.387,0.209,0.948-0.193,1.301c-0.755,0.544-1.739,0.93-2.793,0.93
		C4.396,13.469,2.359,11.502,2.359,9.097z"/>
	<path fill="#FFFFFF" d="M12.159,1.177c0.544,0,0.982,0.439,0.982,0.965v10.36c0,0.526-0.438,0.966-0.982,0.966
		c-0.526,0-0.965-0.439-0.965-0.966V2.143C11.194,1.616,11.633,1.177,12.159,1.177z"/>
	<path fill="#FFFFFF" d="M15.373,12.187c-0.754-0.772-1.212-1.86-1.212-3.089c0-1.195,0.458-2.231,1.212-3.074
		c0.791-0.825,1.809-1.334,3.021-1.334c1.159,0,2.213,0.509,2.934,1.334c0.79,0.843,1.229,1.879,1.229,3.074
		c0,1.229-0.439,2.317-1.229,3.089c-0.721,0.827-1.774,1.335-2.934,1.335C17.182,13.521,16.164,13.014,15.373,12.187z M16.075,9.097
		c0,0.754,0.229,1.369,0.633,1.86c0.438,0.422,1.019,0.65,1.686,0.65c0.615,0,1.177-0.229,1.615-0.65
		c0.438-0.491,0.686-1.105,0.686-1.86c0-0.721-0.247-1.353-0.686-1.827c-0.438-0.386-1-0.667-1.615-0.667
		c-0.667,0-1.247,0.281-1.686,0.667C16.305,7.744,16.075,8.376,16.075,9.097z"/>
	<path fill="#FFFFFF" d="M27.262,13.469c-2,0-3.65-1.651-3.65-3.651V5.62c0-0.492,0.42-0.931,0.931-0.931
		c0.526,0,0.931,0.438,0.931,0.931v4.198c0,1,0.789,1.79,1.789,1.79c1.021,0,1.828-0.79,1.845-1.79V5.62
		c0-0.492,0.387-0.931,0.915-0.931c0.49,0,0.949,0.438,0.949,0.931v4.198C30.971,11.817,29.283,13.469,27.262,13.469z"/>
	<path fill="#FFFFFF" d="M40.4,12.52c0,0.51-0.422,0.949-0.949,0.949c-0.475,0-0.843-0.333-0.93-0.754
		c-0.667,0.455-1.51,0.754-2.389,0.754c-2.371,0-4.266-2.001-4.266-4.372c0-2.407,1.895-4.408,4.266-4.408
		c0.859,0,1.703,0.28,2.354,0.738V2.125c0-0.509,0.421-0.948,0.965-0.948c0.527,0,0.949,0.439,0.949,0.948V9.08c0,0,0,0,0,0.018
		V12.52z M36.133,6.603c-0.633,0-1.212,0.264-1.65,0.72c-0.439,0.438-0.703,1.071-0.703,1.774c0,0.667,0.264,1.299,0.703,1.738
		c0.438,0.456,1.018,0.719,1.65,0.719c0.65,0,1.211-0.263,1.65-0.719c0.438-0.438,0.703-1.071,0.703-1.738
		c0-0.703-0.265-1.336-0.703-1.774C37.344,6.866,36.783,6.603,36.133,6.603z"/>
	<path fill="#FFFFFF" d="M41.666,9.08c0.018-2.389,1.879-4.391,4.285-4.391c2.283,0,4.092,1.704,4.232,4.074
		c0,0.017,0,0.052,0,0.087s0,0.123-0.02,0.158c-0.051,0.42-0.42,0.702-0.912,0.702h-5.584c0.088,0.404,0.281,0.859,0.598,1.158
		c0.369,0.422,1.071,0.738,1.686,0.791c0.631,0.053,1.386-0.106,1.826-0.439c0.367-0.386,1.09-0.334,1.316-0.052
		c0.229,0.245,0.404,0.772,0,1.142c-0.859,0.789-1.896,1.158-3.143,1.158C43.545,13.452,41.684,11.468,41.666,9.08z M43.58,8.219
		h4.969c-0.175-0.702-1.07-1.739-2.598-1.861C44.459,6.427,43.722,7.499,43.58,8.219z"/>
	<path fill="#FFFFFF" d="M56.629,5.62c0,0.491-0.404,0.93-0.932,0.93c-0.402,0-0.754,0.106-1.053,0.334
		c-0.334,0.21-0.598,0.51-0.808,0.843c-0.421,0.561-0.633,1.229-0.72,1.476v3.337c0,0.509-0.439,0.93-0.966,0.93
		c-0.511,0-0.932-0.421-0.932-0.93V5.62c0-0.509,0.421-0.913,0.932-0.913c0.526,0,0.966,0.404,0.966,0.913v0.124
		c0.104-0.124,0.246-0.264,0.368-0.353c0.581-0.386,1.334-0.702,2.212-0.684C56.225,4.707,56.629,5.111,56.629,5.62z"/>
	<g>
		<path fill="#FFFFFF" d="M-28.408,12.746h2.769V5.557h-2.76l-1.263-2.153h6.379v11.492h-6.383"/>
	</g>
	<g>
		<path fill="#FFFFFF" d="M-29.612,5.556h-6.66v7.19h3.838l1.377-2.519h-2.459V8.075h6.452l-3.735,6.822h-7.831V3.403h7.831
			L-29.612,5.556z"/>
	</g>
</g>
</svg>
