<?xml version="1.0" encoding="utf-8"?>
<!-- Generator: Adobe Illustrator 16.0.3, SVG Export Plug-In . SVG Version: 6.00 Build 0)  -->
<!DOCTYPE svg PUBLIC "-//W3C//DTD SVG 1.1//EN" "http://www.w3.org/Graphics/SVG/1.1/DTD/svg11.dtd">
<svg version="1.1" id="Layer_1" xmlns="http://www.w3.org/2000/svg" xmlns:xlink="http://www.w3.org/1999/xlink" x="0px" y="0px"
	 width="273.467px" height="86.617px" viewBox="0.686 0.217 273.467 86.617" enable-background="new 0.686 0.217 273.467 86.617"
	 xml:space="preserve">
<g>
	<rect x="21.637" y="19.873" fill="#41BEC1" width="53.866" height="53.865"/>
	<path fill="#FFFFFF" d="M77.059,18.201l0.007-0.005L58.403,0.831l-0.004,0.005c-0.409-0.381-0.952-0.619-1.556-0.619H2.977
		c-1.266,0-2.291,1.026-2.291,2.291v53.865c0,0.666,0.286,1.254,0.735,1.674l-0.004,0.002l18.659,17.365l0.005-0.006
		c0.409,0.381,0.952,0.621,1.556,0.621h53.866c1.265,0,2.289-1.025,2.289-2.291V19.873C77.792,19.211,77.509,18.62,77.059,18.201z
		 M59.134,55.381V22.158h14.082v46.324L59.134,55.381z M5.265,54.088V8.25l14.084,12.644v33.194H5.265z M19.349,58.666v9.818
		L8.795,58.666H19.349z M59.134,17.583v-9.82l10.552,9.82H59.134z M54.556,17.583H22.512L8.269,4.795h46.287V17.583z M54.556,22.158
		v31.93H23.924v-31.93H54.556z M23.924,58.666h32.021l13.741,12.787H23.924V58.666z"/>
	<path fill="#FFFFFF" d="M109.253,73.739H95.91V21.852h13.343v20.384h6.672l11.563-20.384h14.084l-14.529,25.572l14.455,26.314
		h-14.085l-11.487-21.127h-6.672V73.739z"/>
	<path fill="#FFFFFF" d="M154.456,86.834c-2.62,0-5.833-0.248-9.636-0.742v-9.635h6.672c1.875,0,3.099-0.52,3.668-1.559
		c0.567-1.037,0.458-2.494-0.333-4.373l-15.196-36.322h13.713l9.268,25.203l7.782-25.203h13.71l-14.823,40.77
		c-1.434,3.902-3.285,6.857-5.559,8.857C161.45,85.832,158.358,86.834,154.456,86.834z"/>
	<path fill="#FFFFFF" d="M205.976,63.483c2.619,0,5.583-0.492,8.895-1.482V34.203h12.973V73.49h-11.49l-0.74-3.707
		c-2.324,1.531-4.708,2.66-7.153,3.375c-2.447,0.713-4.509,1.074-6.19,1.074h-3.335c-3.363,0-6.055-1.012-8.079-3.037
		c-2.026-2.027-3.04-4.721-3.04-8.082v-28.91h12.972v26.686c0,0.744,0.248,1.359,0.742,1.855c0.494,0.492,1.11,0.738,1.853,0.738
		H205.976z"/>
	<path fill="#FFFFFF" d="M247.096,73.455v12.602h-12.97V34.169h11.488l0.742,3.705c2.321-1.529,4.707-2.654,7.153-3.372
		c2.444-0.716,4.51-1.074,6.189-1.074h3.337c3.357,0,6.051,1.013,8.079,3.038c2.025,2.028,3.037,4.721,3.037,8.083v17.049
		c0,3.703-1.05,6.605-3.148,8.707c-2.104,2.104-5.003,3.15-8.71,3.15H247.096z M255.991,44.178c-2.618,0-5.582,0.494-8.896,1.479
		v17.791h11.121c1.975,0,2.965-0.988,2.965-2.965V46.768c0-0.74-0.25-1.355-0.743-1.852c-0.491-0.492-1.109-0.738-1.852-0.738
		H255.991z"/>
</g>
</svg>
